<svg width="24" height="24" viewBox="0 0 24 24" fill="none" xmlns="http://www.w3.org/2000/svg">
<path d="M7.78981 7.99999L16.2098 7.99999C16.5422 7.99951 16.868 8.09318 17.1494 8.27015C17.4308 8.44712 17.6563 8.70017 17.7998 8.99999C17.9678 9.35573 18.0326 9.75152 17.9866 10.1423C17.9406 10.533 17.7858 10.903 17.5398 11.21L13.3298 16.31C13.1646 16.5006 12.9603 16.6535 12.7309 16.7583C12.5014 16.8631 12.2521 16.9173 11.9998 16.9173C11.7475 16.9173 11.4982 16.8631 11.2688 16.7583C11.0393 16.6535 10.835 16.5006 10.6698 16.31L6.45981 11.21C6.2138 10.903 6.05899 10.533 6.01302 10.1423C5.96706 9.75152 6.03178 9.35573 6.19981 8.99999C6.34335 8.70017 6.56887 8.44712 6.85026 8.27015C7.13164 8.09318 7.4574 7.99951 7.78981 7.99999Z" fill="#39E7C4"/>
</svg>
