<svg width="24" height="24" viewBox="0 0 24 24" fill="none" xmlns="http://www.w3.org/2000/svg">
<path d="M18.436 20.937H5.56201C4.89897 20.937 4.26309 20.6736 3.79424 20.2048C3.3254 19.7359 3.06201 19.1 3.06201 18.437V5.56299C3.06201 4.89995 3.3254 4.26406 3.79424 3.79522C4.26309 3.32638 4.89897 3.06299 5.56201 3.06299H18.436C19.0991 3.06299 19.7349 3.32638 20.2038 3.79522C20.6726 4.26406 20.936 4.89995 20.936 5.56299V18.437C20.936 19.1 20.6726 19.7359 20.2038 20.2048C19.7349 20.6736 19.0991 20.937 18.436 20.937ZM5.56201 4.06299C5.16419 4.06299 4.78266 4.22102 4.50135 4.50233C4.22005 4.78363 4.06201 5.16516 4.06201 5.56299V18.437C4.06201 18.8348 4.22005 19.2163 4.50135 19.4976C4.78266 19.779 5.16419 19.937 5.56201 19.937H18.436C18.8338 19.937 19.2154 19.779 19.4967 19.4976C19.778 19.2163 19.936 18.8348 19.936 18.437V5.56299C19.936 5.16516 19.778 4.78363 19.4967 4.50233C19.2154 4.22102 18.8338 4.06299 18.436 4.06299H5.56201Z" fill="white"/>
<path d="M6.54396 8.28301C6.4119 8.28062 6.28569 8.22806 6.19096 8.13601C6.09723 8.04224 6.04457 7.91509 6.04457 7.78251C6.04457 7.64992 6.09723 7.52277 6.19096 7.42901C6.28467 7.33554 6.41161 7.28303 6.54396 7.28301H7.54996C7.68189 7.28512 7.80808 7.33732 7.90296 7.42901C7.94954 7.47544 7.98651 7.53061 8.01173 7.59136C8.03696 7.65211 8.04995 7.71723 8.04996 7.78301C8.04996 7.91561 7.99728 8.04279 7.90351 8.13656C7.80975 8.23033 7.68257 8.28301 7.54996 8.28301H6.54396ZM6.54396 12.5C6.41203 12.4979 6.28584 12.4457 6.19096 12.354C6.1444 12.3076 6.10746 12.2524 6.08225 12.1916C6.05704 12.1309 6.04407 12.0658 6.04407 12C6.04407 11.9342 6.05704 11.8691 6.08225 11.8084C6.10746 11.7476 6.1444 11.6925 6.19096 11.646C6.28584 11.5543 6.41203 11.5021 6.54396 11.5H7.54996C7.68189 11.5021 7.80808 11.5543 7.90296 11.646C7.94952 11.6925 7.98647 11.7476 8.01167 11.8084C8.03688 11.8691 8.04985 11.9342 8.04985 12C8.04985 12.0658 8.03688 12.1309 8.01167 12.1916C7.98647 12.2524 7.94952 12.3076 7.90296 12.354C7.80808 12.4457 7.68189 12.4979 7.54996 12.5H6.54396ZM6.54396 16.72C6.4119 16.7176 6.28569 16.6651 6.19096 16.573C6.09723 16.4792 6.04457 16.3521 6.04457 16.2195C6.04457 16.0869 6.09723 15.9598 6.19096 15.866C6.28584 15.7743 6.41203 15.7221 6.54396 15.72H7.54996C7.68189 15.7221 7.80808 15.7743 7.90296 15.866C7.94954 15.9124 7.98651 15.9676 8.01173 16.0284C8.03696 16.0891 8.04995 16.1542 8.04996 16.22C8.04996 16.3526 7.99728 16.4798 7.90351 16.5736C7.80975 16.6673 7.68257 16.72 7.54996 16.72H6.54396ZM10.554 8.28101C10.4214 8.28101 10.2942 8.22833 10.2004 8.13456C10.1066 8.04079 10.054 7.91361 10.054 7.78101C10.054 7.6484 10.1066 7.52122 10.2004 7.42745C10.2942 7.33368 10.4214 7.28101 10.554 7.28101H17.454C17.5866 7.28101 17.7137 7.33368 17.8075 7.42745C17.9013 7.52122 17.954 7.6484 17.954 7.78101C17.954 7.91361 17.9013 8.04079 17.8075 8.13456C17.7137 8.22833 17.5866 8.28101 17.454 8.28101H10.554ZM10.554 12.5C10.4214 12.5 10.2942 12.4473 10.2004 12.3536C10.1066 12.2598 10.054 12.1326 10.054 12C10.054 11.8674 10.1066 11.7402 10.2004 11.6465C10.2942 11.5527 10.4214 11.5 10.554 11.5H17.454C17.5866 11.5 17.7137 11.5527 17.8075 11.6465C17.9013 11.7402 17.954 11.8674 17.954 12C17.954 12.1326 17.9013 12.2598 17.8075 12.3536C17.7137 12.4473 17.5866 12.5 17.454 12.5H10.554ZM10.554 16.718C10.4214 16.718 10.2942 16.6653 10.2004 16.5716C10.1066 16.4778 10.054 16.3506 10.054 16.218C10.054 16.0854 10.1066 15.9582 10.2004 15.8645C10.2942 15.7707 10.4214 15.718 10.554 15.718H17.454C17.5866 15.718 17.7137 15.7707 17.8075 15.8645C17.9013 15.9582 17.954 16.0854 17.954 16.218C17.954 16.3506 17.9013 16.4778 17.8075 16.5716C17.7137 16.6653 17.5866 16.718 17.454 16.718H10.554Z" fill="white"/>
</svg>
