<svg width="24" height="24" viewBox="0 0 24 24" fill="none" xmlns="http://www.w3.org/2000/svg">
<path d="M3.28 2.22003C3.13783 2.08755 2.94978 2.01543 2.75548 2.01885C2.56118 2.02228 2.37579 2.10099 2.23838 2.23841C2.10097 2.37582 2.02225 2.56121 2.01883 2.75551C2.0154 2.94981 2.08752 3.13785 2.22 3.28003L3.958 5.02003C3.41662 5.09089 2.91948 5.35618 2.55924 5.76647C2.199 6.17676 2.00024 6.70404 2 7.25003V14.75C2 15.3468 2.23705 15.9191 2.65901 16.341C3.08097 16.763 3.65326 17 4.25 17H15.94L17.434 18.495C17.374 18.4984 17.3127 18.5 17.25 18.5H4.401C4.66438 18.9562 5.04324 19.335 5.49948 19.5983C5.95571 19.8617 6.47323 20.0002 7 20H17.25C17.76 20 18.25 19.92 18.71 19.771L20.72 21.781C20.7892 21.8526 20.872 21.9097 20.9635 21.949C21.055 21.9883 21.1535 22.0089 21.2531 22.0097C21.3526 22.0105 21.4514 21.9915 21.5435 21.9538C21.6357 21.916 21.7194 21.8603 21.7898 21.7898C21.8602 21.7194 21.9158 21.6356 21.9535 21.5434C21.9912 21.4512 22.0101 21.3525 22.0092 21.2529C22.0083 21.1533 21.9875 21.0549 21.9482 20.9634C21.9088 20.8719 21.8517 20.7892 21.78 20.72L3.28 2.22003ZM14.44 15.5H6.5V14.75C6.5 14.1533 6.26295 13.581 5.84099 13.159C5.41903 12.7371 4.84674 12.5 4.25 12.5H3.5V9.50003H4.25C4.79617 9.50004 5.32369 9.30138 5.73418 8.94112C6.14468 8.58085 6.41012 8.08358 6.481 7.54203L8.117 9.17803C7.67448 9.75547 7.45687 10.474 7.50468 11.2C7.55248 11.9259 7.86245 12.6097 8.37687 13.1242C8.8913 13.6386 9.57512 13.9485 10.3011 13.9964C11.027 14.0442 11.7456 13.8265 12.323 13.384L14.44 15.5ZM9.197 10.257L11.243 12.304C10.9574 12.4669 10.6261 12.5313 10.3003 12.4875C9.9744 12.4437 9.67196 12.2941 9.43947 12.0616C9.20697 11.8291 9.05731 11.5266 9.0135 11.2008C8.96969 10.8749 9.03416 10.5437 9.197 10.258M3.5 7.25003C3.5 7.05112 3.57902 6.86035 3.71967 6.7197C3.86032 6.57905 4.05109 6.50003 4.25 6.50003H5V7.25003C5 7.44894 4.92098 7.63971 4.78033 7.78036C4.63968 7.92101 4.44891 8.00003 4.25 8.00003H3.5V7.25003ZM4.25 15.5C4.05109 15.5 3.86032 15.421 3.71967 15.2804C3.57902 15.1397 3.5 14.9489 3.5 14.75V14H4.25C4.44891 14 4.63968 14.079 4.78033 14.2197C4.92098 14.3604 5 14.5511 5 14.75V15.5H4.25ZM16.75 12.5C16.4449 12.4985 16.1428 12.5605 15.863 12.682L17.18 14H17.499V14.32L18.817 15.637C18.9385 15.3572 19.0005 15.0551 18.999 14.75V7.25003C18.999 6.65347 18.7621 6.08132 18.3403 5.65939C17.9186 5.23746 17.3466 5.00029 16.75 5.00003H8.18L9.68 6.50003H14.5V7.25003C14.5 7.5455 14.5582 7.83808 14.6713 8.11107C14.7843 8.38405 14.9501 8.63209 15.159 8.84102C15.581 9.26298 16.1533 9.50003 16.75 9.50003H17.5V12.5H16.75ZM17.5 7.25003V8.00003H16.75C16.5511 8.00003 16.3603 7.92101 16.2197 7.78036C16.079 7.63971 16 7.44894 16 7.25003V6.50003H16.75C16.9489 6.50003 17.1397 6.57905 17.2803 6.7197C17.421 6.86035 17.5 7.05112 17.5 7.25003ZM20.062 16.881L21.147 17.966C21.685 17.196 22 16.26 22 15.25V10C22.0002 9.47326 21.8616 8.95574 21.5983 8.49951C21.335 8.04327 20.9562 7.66441 20.5 7.40103V15.25C20.5007 15.8229 20.3496 16.3856 20.062 16.881Z" fill="white"/>
</svg>
